<?xml version="1.0" encoding="utf-8"?>
<svg viewBox="0 0 1414 1055" xmlns="http://www.w3.org/2000/svg">
  <path fill="#00FFC9" opacity="1.000000" stroke="none" d=" M558.531372,0.999995 C559.787537,1.666189 560.489929,2.760052 561.374939,2.936193 C584.970764,7.632020 604.315063,19.080370 619.569641,37.906223 C633.424072,55.004116 641.248352,74.735397 645.815491,95.786026 C648.777710,109.439293 650.100891,123.456497 651.971741,137.335800 C653.760864,150.608383 655.391541,163.903870 656.934998,177.207504 C658.086365,187.131012 659.118347,197.072388 659.963745,207.026184 C660.799194,216.863220 661.959900,226.731049 661.877747,236.576172 C661.666565,261.873657 652.996948,283.714508 635.364746,302.382050 C615.766785,323.130798 592.664978,339.055389 568.724976,354.028656 C542.892090,370.185822 517.043274,386.318176 491.124725,402.337311 C468.520233,416.308105 445.773346,430.048401 423.155914,443.998474 C403.986420,455.821960 384.914978,467.804352 365.794708,479.707703 C352.593689,487.926025 339.383392,496.129456 325.652466,504.682465 C323.510315,505.835388 321.813965,506.519165 320.287506,507.474365 C298.145691,521.330566 275.994476,535.172119 253.913086,549.124207 C238.584564,558.809509 222.582581,567.648193 208.261414,578.659729 C183.719604,597.529968 162.957428,620.280273 146.827545,646.872620 C127.247917,679.152344 114.959930,713.576843 120.197884,752.008972 C121.999245,765.226013 125.346375,778.452393 129.784760,791.040771 C137.323166,812.421631 150.726944,830.229736 167.183655,845.758362 C168.695679,847.185059 169.718735,849.129944 170.608917,850.899048 C168.980255,850.281067 167.603073,849.743958 166.459625,848.892883 C155.779221,840.943298 144.935608,833.193481 134.551895,824.870972 C126.385429,818.325500 118.800812,811.054077 110.790878,803.851562 C110.065712,803.395996 109.507393,803.193909 108.644424,802.859497 C104.562035,798.835876 100.784286,794.944580 96.974503,790.753052 C96.589523,789.991760 96.236588,789.530701 95.580551,788.931396 C89.344574,782.185669 83.117561,775.815674 77.545502,768.916687 C68.450554,757.655762 59.386955,746.330200 51.027878,734.523743 C38.644089,717.032776 28.598175,698.187012 20.650114,678.241699 C11.239244,654.625488 4.648628,630.351868 2.922679,604.878601 C2.855037,603.880188 1.666337,602.957825 0.999998,602.000000 C1.000000,540.979126 1.000000,479.958221 1.342726,418.809814 C2.120872,417.839233 2.805733,417.037506 2.953633,416.146667 C4.683064,405.729767 5.980691,395.228088 8.081872,384.888947 C11.458283,368.274994 17.825811,352.642120 26.526379,338.189880 C38.501030,318.299164 53.362350,300.600586 71.080864,285.541077 C87.526802,271.563202 103.863335,257.359924 121.210342,244.560013 C152.958847,221.133636 185.070480,198.160828 217.668152,175.933746 C256.924835,149.166168 296.784760,123.279839 336.507172,97.200340 C354.244476,85.555046 372.226959,74.279266 390.200348,62.998596 C410.646179,50.166142 431.532623,38.005959 451.617554,24.637146 C468.967621,13.088714 487.452393,5.417689 508.122284,2.918665 C508.815369,2.834870 509.377075,1.664099 510.000000,0.999999 C526.020874,1.000000 542.041809,1.000000 558.531372,0.999995 z"/>
  <path fill="#00FFC9" opacity="1.000000" stroke="none" d=" M857.468628,1056.000000 C856.212463,1055.333740 855.510071,1054.239868 854.625061,1054.063721 C831.029175,1049.367920 811.684875,1037.919556 796.430237,1019.093689 C782.575928,1001.995728 774.751526,982.264465 770.184570,961.213684 C767.222412,947.560425 765.899231,933.543213 764.028320,919.663879 C762.239197,906.391235 760.609131,893.095703 759.064758,879.792053 C757.912903,869.868896 756.863708,859.928955 756.034607,849.974365 C755.187500,839.805115 753.998352,829.599976 754.132263,819.426086 C754.458191,794.664185 763.152527,773.299255 780.298767,754.991699 C802.082520,731.732361 828.347107,714.625793 855.067810,697.993958 C878.318481,683.521790 901.561035,669.036133 924.871277,654.660400 C947.489319,640.711304 970.227295,626.956665 992.840332,612.999634 C1010.352051,602.191162 1027.736938,591.177795 1045.206299,580.300720 C1060.057373,571.053955 1074.948853,561.871826 1090.347168,552.317932 C1092.209473,551.342468 1093.626953,550.838257 1094.872314,550.058899 C1117.454956,535.925476 1140.050415,521.812012 1162.571167,507.580597 C1177.770386,497.975891 1193.631714,489.199280 1207.825073,478.270599 C1232.647949,459.157257 1253.522461,436.052826 1269.802490,409.123474 C1278.255127,395.141510 1285.488770,380.539490 1290.094360,364.733765 C1295.157471,347.357849 1296.972656,329.759766 1296.182251,311.635284 C1295.504883,296.105804 1292.237549,281.290070 1286.834106,266.936859 C1278.965332,246.034714 1266.361816,228.170731 1250.297729,212.692780 C1248.945801,211.390152 1248.158325,209.501617 1247.461914,207.942795 C1253.096680,211.395340 1258.767212,214.316895 1263.586914,218.274353 C1277.895630,230.022781 1291.869263,242.179169 1306.188721,254.370209 C1306.953003,254.712189 1307.502563,254.860016 1308.356567,255.140396 C1312.105103,258.830902 1315.549194,262.388885 1319.006836,266.235291 C1319.292603,267.019836 1319.564819,267.515961 1319.983398,268.328247 C1326.219482,275.064911 1332.701294,281.162872 1338.310547,287.978790 C1347.518555,299.167419 1356.613281,310.503967 1364.934082,322.355072 C1377.250488,339.897491 1387.370117,358.720978 1395.319824,378.693054 C1404.731689,402.339142 1411.329346,426.625275 1413.077148,452.116913 C1413.145752,453.117188 1414.333618,454.040710 1415.000000,455.000000 C1415.000000,516.020874 1415.000000,577.041809 1414.657349,638.190247 C1413.879272,639.160461 1413.194214,639.961731 1413.046387,640.852173 C1411.316895,651.269043 1410.018921,661.770630 1407.918213,672.109924 C1404.542847,688.724182 1398.175049,704.356873 1389.474365,718.809021 C1377.499756,738.699768 1362.638672,756.398743 1344.920044,771.458191 C1328.474121,785.436035 1312.137451,799.639160 1294.790405,812.439148 C1263.041992,835.865601 1230.930298,858.838623 1198.332642,881.065674 C1159.075806,907.833374 1119.215576,933.719666 1079.492920,959.799316 C1061.755615,971.444702 1043.773071,982.720703 1025.799683,994.001404 C1005.353760,1006.833862 984.467346,1018.994141 964.382324,1032.362915 C947.032288,1043.911377 928.547424,1051.582520 907.877563,1054.081421 C907.184509,1054.165161 906.622925,1055.335938 906.000000,1056.000000 C889.979126,1056.000000 873.958191,1056.000000 857.468628,1056.000000 z"/>
  <path fill="#17D4A8" opacity="1.000000" stroke="none" d=" M170.968811,850.834290 C169.718735,849.129944 168.695679,847.185059 167.183655,845.758362 C150.726944,830.229736 137.323166,812.421631 129.784760,791.040771 C125.346375,778.452393 121.999245,765.226013 120.197884,752.008972 C114.959930,713.576843 127.247917,679.152344 146.827545,646.872620 C162.957428,620.280273 183.719604,597.529968 208.261414,578.659729 C222.582581,567.648193 238.584564,558.809509 253.913086,549.124207 C275.994476,535.172119 298.145691,521.330566 320.287506,507.474365 C321.813965,506.519165 323.510315,505.835388 325.482300,504.997803 C337.662720,514.216675 349.423645,523.547607 361.329987,532.689087 C377.779327,545.318726 394.342010,557.800537 410.849243,570.354797 C427.488129,583.009155 444.168427,595.609924 460.739441,608.352600 C478.752167,622.203979 496.674744,636.172852 514.609375,650.125427 C532.803833,664.280273 551.095459,678.315247 569.084839,692.726685 C577.814636,699.720276 586.067261,707.327698 594.323242,714.889404 C602.148621,722.056641 609.962341,729.271362 617.310791,736.917297 C633.165955,753.414246 647.022156,771.533203 654.418457,793.382751 C658.344666,804.981445 660.166992,817.416077 661.807434,829.625366 C663.101807,839.258545 663.316528,849.154785 662.857117,858.879639 C662.042297,876.127686 660.362427,893.335083 659.023499,910.557861 C658.373413,918.919495 657.851196,927.296143 656.964600,935.633362 C654.976746,954.326843 651.067078,972.560974 643.577576,989.922058 C638.229370,1002.319580 631.343689,1013.600403 622.085327,1023.583923 C608.799988,1037.910034 592.614807,1046.939575 573.971069,1052.008423 C570.106934,1053.058960 566.268127,1054.202515 562.708862,1055.651611 C546.312439,1056.000000 529.624878,1056.000000 512.702698,1055.613037 C511.955780,1054.839966 511.488495,1054.208984 510.924316,1054.105347 C503.235199,1052.692749 495.408020,1051.832520 487.866119,1049.870361 C479.121246,1047.595459 469.903503,1045.652832 462.158051,1041.307495 C441.156128,1029.525024 420.706390,1016.737305 400.254211,1004.000488 C368.889862,984.468140 337.430389,965.066895 306.520538,944.832214 C272.311584,922.437744 238.573853,899.316467 204.846222,876.197571 C193.220840,868.228821 182.242645,859.315918 170.968811,850.834290 z"/>
  <path fill="#17D4A8" opacity="1.000000" stroke="none" d=" M1247.108643,207.885269 C1248.158325,209.501617 1248.945801,211.390152 1250.297729,212.692780 C1266.361816,228.170731 1278.965332,246.034714 1286.834106,266.936859 C1292.237549,281.290070 1295.504883,296.105804 1296.182251,311.635284 C1296.972656,329.759766 1295.157471,347.357849 1290.094360,364.733765 C1285.488770,380.539490 1278.255127,395.141510 1269.802490,409.123474 C1253.522461,436.052826 1232.647949,459.157257 1207.825073,478.270599 C1193.631714,489.199280 1177.770386,497.975891 1162.571167,507.580597 C1140.050415,521.812012 1117.454956,535.925476 1094.872314,550.058899 C1093.626953,550.838257 1092.209473,551.342468 1090.517578,552.002686 C1078.337402,542.783875 1066.576660,533.452698 1054.670410,524.311218 C1038.221191,511.681610 1021.658508,499.199951 1005.151367,486.645752 C988.512451,473.991425 971.832336,461.390503 955.261292,448.647827 C937.248474,434.796478 919.340698,420.808563 901.386902,406.880524 C883.564819,393.054657 865.599182,379.408386 847.979980,365.328674 C839.112854,358.242798 830.776001,350.478088 822.381409,342.820862 C815.156677,336.230682 808.095459,329.453583 801.129761,322.588867 C787.501648,309.158203 775.931885,294.059540 767.170654,277.087677 C760.820801,264.786926 756.261108,251.563797 755.133606,237.668198 C753.878052,222.193909 752.899902,206.619125 753.219849,191.117355 C753.527588,176.205093 755.670837,161.332214 756.963379,146.438187 C757.688416,138.082779 758.111694,129.695908 759.042908,121.364792 C761.147583,102.534729 764.932617,84.132851 772.648499,66.639160 C778.039612,54.416172 784.813416,43.293037 793.922546,33.423981 C807.174866,19.065960 823.385071,10.060587 842.028870,4.991659 C845.893005,3.941059 849.731812,2.797509 853.291138,1.348403 C869.687561,1.000000 886.375122,1.000000 903.297363,1.387058 C904.043823,2.159981 904.510437,2.791070 905.074036,2.894688 C912.756348,4.306976 920.575378,5.170992 928.112061,7.128036 C936.851379,9.397391 946.070801,11.319303 953.806396,15.663286 C974.786804,27.445023 995.200806,40.254093 1015.640808,52.974789 C1046.982666,72.480133 1078.343140,91.966438 1109.347900,111.999062 C1135.727417,129.043243 1161.681763,146.750015 1187.696777,164.351990 C1203.205322,174.845154 1218.542480,185.597153 1233.788330,196.469116 C1237.542236,199.146118 1240.638062,202.745865 1244.119141,206.261429 C1245.184082,207.044891 1246.166138,207.488327 1247.114990,207.940216 C1247.081665,207.948654 1247.108643,207.885269 1247.108643,207.885269 z"/>
  <path fill="#15D7AA" opacity="1.000000" stroke="none" d=" M96.974495,790.753052 C96.666626,790.599304 96.326729,790.145386 95.935242,789.380493 C96.236588,789.530701 96.589523,789.991760 96.974495,790.753052 z"/>
  <path fill="#15D7AA" opacity="1.000000" stroke="none" d=" M110.790863,803.851624 C110.357269,803.935364 109.756836,803.765564 109.052734,803.293823 C109.507393,803.193909 110.065712,803.395996 110.790863,803.851624 z"/>
  <path fill="#15D7AA" opacity="1.000000" stroke="none" d=" M1306.188721,254.370209 C1306.592529,254.248276 1307.211182,254.320450 1307.940918,254.700256 C1307.502563,254.860016 1306.953003,254.712189 1306.188721,254.370209 z"/>
  <path fill="#15D7AA" opacity="1.000000" stroke="none" d=" M1319.006836,266.235260 C1319.319458,266.423767 1319.645630,266.900726 1319.904297,267.694885 C1319.564819,267.515961 1319.292603,267.019836 1319.006836,266.235260 z"/>
  <path fill="#00FFC9" opacity="1.000000" stroke="none" d=" M1244.119141,206.261429 C1244.971313,206.395615 1245.906006,206.869812 1246.994629,207.637878 C1246.166138,207.488327 1245.184082,207.044891 1244.119141,206.261429 z"/>
</svg>