<?xml version="1.0" encoding="UTF-8" standalone="no"?>
<!DOCTYPE svg PUBLIC "-//W3C//DTD SVG 1.1//EN" "http://www.w3.org/Graphics/SVG/1.1/DTD/svg11.dtd">
<svg width="100%" height="100%" viewBox="0 0 175 30" version="1.1" xmlns="http://www.w3.org/2000/svg" xmlns:xlink="http://www.w3.org/1999/xlink" xml:space="preserve" xmlns:serif="http://www.serif.com/" style="fill-rule:evenodd;clip-rule:evenodd;stroke-linejoin:round;stroke-miterlimit:2;">
    <g transform="matrix(0.0268741,0,0,0.0268741,0.973124,0.973121)">
        <path d="M558.531,1C559.788,1.666 560.49,2.76 561.375,2.936C584.971,7.632 604.315,19.08 619.57,37.906C633.424,55.004 641.248,74.735 645.815,95.786C648.778,109.439 650.101,123.456 651.972,137.336C653.761,150.608 655.392,163.904 656.935,177.208C658.086,187.131 659.118,197.072 659.964,207.026C660.799,216.863 661.96,226.731 661.878,236.576C661.667,261.874 652.997,283.715 635.365,302.382C615.767,323.131 592.665,339.055 568.725,354.029C542.892,370.186 517.043,386.318 491.125,402.337C468.52,416.308 445.773,430.048 423.156,443.998C403.986,455.822 384.915,467.804 365.795,479.708C352.594,487.926 339.383,496.129 325.652,504.682C323.51,505.835 321.814,506.519 320.288,507.474C298.146,521.331 275.994,535.172 253.913,549.124C238.585,558.81 222.583,567.648 208.261,578.66C183.72,597.53 162.957,620.28 146.828,646.873C127.248,679.152 114.96,713.577 120.198,752.009C121.999,765.226 125.346,778.452 129.785,791.041C137.323,812.422 150.727,830.23 167.184,845.758C168.696,847.185 169.719,849.13 170.609,850.899C168.98,850.281 167.603,849.744 166.46,848.893C155.779,840.943 144.936,833.193 134.552,824.871C126.385,818.326 118.801,811.054 110.791,803.852C110.066,803.396 109.507,803.194 108.644,802.859C104.562,798.836 100.784,794.945 96.975,790.753C96.59,789.992 96.237,789.531 95.581,788.931C89.345,782.186 83.118,775.816 77.546,768.917C68.451,757.656 59.387,746.33 51.028,734.524C38.644,717.033 28.598,698.187 20.65,678.242C11.239,654.625 4.649,630.352 2.923,604.879C2.855,603.88 1.666,602.958 1,602C1,540.979 1,479.958 1.343,418.81C2.121,417.839 2.806,417.038 2.954,416.147C4.683,405.73 5.981,395.228 8.082,384.889C11.458,368.275 17.826,352.642 26.526,338.19C38.501,318.299 53.362,300.601 71.081,285.541C87.527,271.563 103.863,257.36 121.21,244.56C152.959,221.134 185.07,198.161 217.668,175.934C256.925,149.166 296.785,123.28 336.507,97.2C354.244,85.555 372.227,74.279 390.2,62.999C410.646,50.166 431.533,38.006 451.618,24.637C468.968,13.089 487.452,5.418 508.122,2.919C508.815,2.835 509.377,1.664 510,1C526.021,1 542.042,1 558.531,1Z" style="fill:rgb(0,255,201);fill-rule:nonzero;"/>
        <path d="M857.469,1056C856.212,1055.33 855.51,1054.24 854.625,1054.06C831.029,1049.37 811.685,1037.92 796.43,1019.09C782.576,1002 774.752,982.264 770.185,961.214C767.222,947.56 765.899,933.543 764.028,919.664C762.239,906.391 760.609,893.096 759.065,879.792C757.913,869.869 756.864,859.929 756.035,849.974C755.188,839.805 753.998,829.6 754.132,819.426C754.458,794.664 763.153,773.299 780.299,754.992C802.083,731.732 828.347,714.626 855.068,697.994C878.318,683.522 901.561,669.036 924.871,654.66C947.489,640.711 970.227,626.957 992.84,613C1010.35,602.191 1027.74,591.178 1045.21,580.301C1060.06,571.054 1074.95,561.872 1090.35,552.318C1092.21,551.342 1093.63,550.838 1094.87,550.059C1117.45,535.925 1140.05,521.812 1162.57,507.581C1177.77,497.976 1193.63,489.199 1207.83,478.271C1232.65,459.157 1253.52,436.053 1269.8,409.123C1278.26,395.142 1285.49,380.539 1290.09,364.734C1295.16,347.358 1296.97,329.76 1296.18,311.635C1295.51,296.106 1292.24,281.29 1286.83,266.937C1278.96,246.035 1266.36,228.171 1250.3,212.693C1248.95,211.39 1248.16,209.502 1247.46,207.943C1253.1,211.395 1258.77,214.317 1263.59,218.274C1277.9,230.023 1291.87,242.179 1306.19,254.37C1306.95,254.712 1307.5,254.86 1308.36,255.14C1312.11,258.831 1315.55,262.389 1319.01,266.235C1319.29,267.02 1319.57,267.516 1319.98,268.328C1326.22,275.065 1332.7,281.163 1338.31,287.979C1347.52,299.167 1356.61,310.504 1364.93,322.355C1377.25,339.897 1387.37,358.721 1395.32,378.693C1404.73,402.339 1411.33,426.625 1413.08,452.117C1413.15,453.117 1414.33,454.041 1415,455C1415,516.021 1415,577.042 1414.66,638.19C1413.88,639.16 1413.19,639.962 1413.05,640.852C1411.32,651.269 1410.02,661.771 1407.92,672.11C1404.54,688.724 1398.17,704.357 1389.47,718.809C1377.5,738.7 1362.64,756.399 1344.92,771.458C1328.47,785.436 1312.14,799.639 1294.79,812.439C1263.04,835.866 1230.93,858.839 1198.33,881.066C1159.08,907.833 1119.22,933.72 1079.49,959.799C1061.76,971.445 1043.77,982.721 1025.8,994.001C1005.35,1006.83 984.467,1018.99 964.382,1032.36C947.032,1043.91 928.547,1051.58 907.878,1054.08C907.185,1054.16 906.623,1055.34 906,1056L857.469,1056Z" style="fill:rgb(0,255,201);fill-rule:nonzero;"/>
        <path d="M170.969,850.834C169.719,849.13 168.696,847.185 167.184,845.758C150.727,830.23 137.323,812.422 129.785,791.041C125.346,778.452 121.999,765.226 120.198,752.009C114.96,713.577 127.248,679.152 146.828,646.873C162.957,620.28 183.72,597.53 208.261,578.66C222.583,567.648 238.585,558.81 253.913,549.124C275.994,535.172 298.146,521.331 320.288,507.474C321.814,506.519 323.51,505.835 325.482,504.998C337.663,514.217 349.424,523.548 361.33,532.689C377.779,545.319 394.342,557.801 410.849,570.355C427.488,583.009 444.168,595.61 460.739,608.353C478.752,622.204 496.675,636.173 514.609,650.125C532.804,664.28 551.095,678.315 569.085,692.727C577.815,699.72 586.067,707.328 594.323,714.889C602.149,722.057 609.962,729.271 617.311,736.917C633.166,753.414 647.022,771.533 654.418,793.383C658.345,804.981 660.167,817.416 661.807,829.625C663.102,839.259 663.317,849.155 662.857,858.88C662.042,876.128 660.362,893.335 659.023,910.558C658.373,918.919 657.851,927.296 656.965,935.633C654.977,954.327 651.067,972.561 643.578,989.922C638.229,1002.32 631.344,1013.6 622.085,1023.58C608.8,1037.91 592.615,1046.94 573.971,1052.01C570.107,1053.06 566.268,1054.2 562.709,1055.65C546.312,1056 529.625,1056 512.703,1055.61C511.956,1054.84 511.488,1054.21 510.924,1054.11C503.235,1052.69 495.408,1051.83 487.866,1049.87C479.121,1047.6 469.904,1045.65 462.158,1041.31C441.156,1029.53 420.706,1016.74 400.254,1004C368.89,984.468 337.43,965.067 306.521,944.832C272.312,922.438 238.574,899.316 204.846,876.198C193.221,868.229 182.243,859.316 170.969,850.834Z" style="fill:rgb(23,212,168);fill-rule:nonzero;"/>
        <path d="M1247.11,207.885C1248.16,209.502 1248.95,211.39 1250.3,212.693C1266.36,228.171 1278.96,246.035 1286.83,266.937C1292.24,281.29 1295.51,296.106 1296.18,311.635C1296.97,329.76 1295.16,347.358 1290.09,364.734C1285.49,380.539 1278.26,395.142 1269.8,409.123C1253.52,436.053 1232.65,459.157 1207.83,478.271C1193.63,489.199 1177.77,497.976 1162.57,507.581C1140.05,521.812 1117.45,535.925 1094.87,550.059C1093.63,550.838 1092.21,551.342 1090.52,552.003C1078.34,542.784 1066.58,533.453 1054.67,524.311C1038.22,511.682 1021.66,499.2 1005.15,486.646C988.512,473.991 971.832,461.391 955.261,448.648C937.248,434.796 919.341,420.809 901.387,406.881C883.565,393.055 865.599,379.408 847.98,365.329C839.113,358.243 830.776,350.478 822.381,342.821C815.157,336.231 808.095,329.454 801.13,322.589C787.502,309.158 775.932,294.06 767.171,277.088C760.821,264.787 756.261,251.564 755.134,237.668C753.878,222.194 752.9,206.619 753.22,191.117C753.528,176.205 755.671,161.332 756.963,146.438C757.688,138.083 758.112,129.696 759.043,121.365C761.148,102.535 764.933,84.133 772.648,66.639C778.04,54.416 784.813,43.293 793.923,33.424C807.175,19.066 823.385,10.061 842.029,4.992C845.893,3.941 849.732,2.798 853.291,1.348C869.688,1 886.375,1 903.297,1.387C904.044,2.16 904.51,2.791 905.074,2.895C912.756,4.307 920.575,5.171 928.112,7.128C936.851,9.397 946.071,11.319 953.806,15.663C974.787,27.445 995.201,40.254 1015.64,52.975C1046.98,72.48 1078.34,91.966 1109.35,111.999C1135.73,129.043 1161.68,146.75 1187.7,164.352C1203.2,174.845 1218.54,185.597 1233.79,196.469C1237.54,199.146 1240.64,202.746 1244.12,206.261C1245.18,207.045 1246.17,207.488 1247.12,207.94C1247.08,207.949 1247.11,207.885 1247.11,207.885Z" style="fill:rgb(23,212,168);fill-rule:nonzero;"/>
        <path d="M96.974,790.753C96.667,790.599 96.327,790.145 95.935,789.38C96.237,789.531 96.59,789.992 96.974,790.753Z" style="fill:rgb(21,215,170);fill-rule:nonzero;"/>
        <path d="M110.791,803.852C110.357,803.935 109.757,803.766 109.053,803.294C109.507,803.194 110.066,803.396 110.791,803.852Z" style="fill:rgb(21,215,170);fill-rule:nonzero;"/>
        <path d="M1306.19,254.37C1306.59,254.248 1307.21,254.32 1307.94,254.7C1307.5,254.86 1306.95,254.712 1306.19,254.37Z" style="fill:rgb(21,215,170);fill-rule:nonzero;"/>
        <path d="M1319.01,266.235C1319.32,266.424 1319.65,266.901 1319.9,267.695C1319.57,267.516 1319.29,267.02 1319.01,266.235Z" style="fill:rgb(21,215,170);fill-rule:nonzero;"/>
        <path d="M1244.12,206.261C1244.97,206.396 1245.91,206.87 1247,207.638C1246.17,207.488 1245.18,207.045 1244.12,206.261Z" style="fill:rgb(0,255,201);fill-rule:nonzero;"/>
    </g>
    <g transform="matrix(1.47555,0,0,1.47555,-27.2904,-5.52295)">
        <text x="48px" y="21px" style="font-family:'PTSans-CaptionBold', 'PT Sans Caption', sans-serif;font-weight:700;font-size:20.941px;fill:rgb(84,84,84);">C<tspan x="59.957px " y="21px ">O</tspan>DEUM</text>
    </g>
</svg>
