<?xml version="1.0" encoding="UTF-8" standalone="no"?>
<!DOCTYPE svg PUBLIC "-//W3C//DTD SVG 1.1//EN" "http://www.w3.org/Graphics/SVG/1.1/DTD/svg11.dtd">
<svg width="100%" height="100%" viewBox="0 0 23 23" version="1.1" xmlns="http://www.w3.org/2000/svg" xmlns:xlink="http://www.w3.org/1999/xlink" xml:space="preserve" xmlns:serif="http://www.serif.com/" style="fill-rule:evenodd;clip-rule:evenodd;stroke-linejoin:round;stroke-miterlimit:2;">
    <g transform="matrix(1,0,0,1,-10.1,-5.3)">
        <path d="M21.4,27.9C27.7,27.9 32.7,22.8 32.7,16.6C32.7,10.3 27.6,5.3 21.4,5.3C15.1,5.3 10.1,10.4 10.1,16.6C10.1,22.8 15.2,27.9 21.4,27.9Z" style="fill:rgb(44,55,75);fill-rule:nonzero;"/>
        <path d="M27.6,12.5C27.5,12.4 22.6,9.5 22,9.3C21.8,9.2 21.3,9.1 21,9.2C20.7,9.3 15.5,12.3 15.3,12.5C15.2,12.6 15.1,12.8 15,12.9C14.9,13.1 14.9,13.2 14.9,16.7L14.9,20.3L15.6,20.7C16,20.9 16.3,21.1 16.3,21.1C16.4,21.1 21.1,13.6 21.1,13.5C21.1,13.4 20,13.4 19.7,13.5C19.3,13.6 19,13.8 18.8,14C18.7,14.1 18.1,15.1 17.3,16.2C16.6,17.3 16,18.3 16,18.3L16,13.4L16.1,13.3C16.3,13.1 21.4,10.2 21.6,10.2C21.7,10.2 21.8,10.2 23,10.9C23.4,11.1 24.5,11.7 25.4,12.3C26.3,12.8 27.1,13.3 27.2,13.4L27.3,13.5L27.3,18.7L24.8,14.8C24.7,14.6 24.6,14.4 24.5,14.3C24.5,14.3 24.4,14.5 23.8,15.5C23.7,15.6 23.6,15.8 23.6,15.9L23.5,16.1L23.8,16.4L24,16.7C24,16.7 24,16.8 24.1,16.8C24.2,16.9 24.3,17.1 24.3,17.2L24.3,17.3L26.4,20.7L26.2,20.8C26.1,20.9 26,20.9 25.9,20.9L23.3,16.9L23.2,16.8L23,17.2L22,18.8L24,22C23.7,22.2 22,23.4 21.9,23.4C21.8,23.4 19.5,21.9 19.6,21.8C19.6,21.8 20.3,20.6 21.1,19.2C21.8,18 22.7,16.5 23.3,15.5C24,14.3 24.3,13.7 24.3,13.7L22.2,13.7L19.9,17.5C19.1,18.9 18.3,20.2 17.9,20.9C17.2,21 17,21.2 17,21.2L16.9,21.4L18.7,22.4C19.7,23 20.6,23.5 20.8,23.6C21.1,23.8 21.6,23.8 21.8,23.8C22,23.7 27.2,20.7 27.5,20.5C27.6,20.4 27.7,20.3 27.8,20.1L27.9,19.8L27.9,13.2L27.8,13C27.8,12.8 27.6,12.6 27.6,12.5Z" style="fill:white;"/>
        <path d="M27.1,18.6L24.1,14L23,15.8L25.9,20.5L27.2,19.9L27.1,18.6Z" style="fill:rgb(36,162,238);fill-rule:nonzero;"/>
        <path d="M25.7,21.1L22.7,16.5L21.4,18.5L23.8,22.3L25.3,21.7L25.7,21.1Z" style="fill:rgb(36,162,238);fill-rule:nonzero;"/>
        <path d="M15.9,13.4L21.4,10.2L26.9,13.4L26.9,19.8L21.4,23L17.3,20.7L16.8,21.6L21.3,24.2C21.4,24.3 21.5,24.3 21.6,24.2L27.9,20.6C28,20.5 28.1,20.4 28.1,20.3L28.1,13.1C28.1,13 28,12.9 27.9,12.8L21.6,9.2C21.5,9.1 21.4,9.1 21.3,9.2L15,12.7C14.9,12.8 14.8,12.9 14.8,13L14.8,20.2C14.8,20.3 14.9,20.4 15,20.5L16.3,21.2L16.9,20.3L16,19.8L16,13.4L15.9,13.4Z" style="fill:rgb(152,188,220);"/>
        <path d="M23.8,13.4L21.7,13.4L16.8,21.4L18.5,22.4L23.8,13.4Z" style="fill:white;fill-rule:nonzero;"/>
        <path d="M18.5,14.2C19,13.4 20.4,13.4 21,13.5L16.2,21.2C16,21.1 15.6,20.9 15.3,20.7C14.9,20.5 14.8,20.5 14.8,20.2L14.8,19.8C15.9,18.2 18,15 18.5,14.2Z" style="fill:white;fill-rule:nonzero;"/>
    </g>
</svg>
